# xmcd
#
# Track frame offsets: 
#        150
#        24992
#        42660
#        61710
#        78402
#        98772
#        113250
#        125625
#        139622
#        155320
#        182390
#        212907
#
# Disc length: 2844 seconds
#
# Revision: 1
# Processed by: cddbd v1.5.1PL2 Copyright (c) Steve Scherf et al.
# Submitted via: ExactAudioCopy v0.90b4
#
DISCID=910b1a0c
DTITLE=John Holm - Vägen Till Californien
DYEAR=1999
DGENRE=Rock
TTITLE0=Andra sidan ån
TTITLE1=Han måste gå
TTITLE2=Blå väg
TTITLE3=Sänd mig ett minne
TTITLE4=Ingen har en hy som du
TTITLE5=Nästan ny
TTITLE6=Vänta på igår
TTITLE7=Rullar
TTITLE8=Maria, många mil och år från här
TTITLE9=Jag kallar honom vän
TTITLE10=Ingen
TTITLE11=Polaritetstest (rätt polaritet +++-)
EXTD=
EXTT0=
EXTT1=
EXTT2=
EXTT3=
EXTT4=
EXTT5=
EXTT6=
EXTT7=
EXTT8=
EXTT9=
EXTT10=
EXTT11=
PLAYORDER=
